<svg version="1.1" viewBox="0.0 0.0 960.0 720.0" fill="none" stroke="none" stroke-linecap="square" stroke-miterlimit="10" xmlns:xlink="http://www.w3.org/1999/xlink" xmlns="http://www.w3.org/2000/svg"><clipPath id="p.0"><path d="m0 0l960.0 0l0 720.0l-960.0 0l0 -720.0z" clip-rule="nonzero"/></clipPath><g clip-path="url(#p.0)"><path fill="#000000" fill-opacity="0.0" d="m0 0l960.0 0l0 720.0l-960.0 0z" fill-rule="evenodd"/><path fill="#000000" fill-opacity="0.0" d="m223.9895 -16.170603l63.055115 144.37796" fill-rule="evenodd"/><path stroke="#595856" stroke-width="16.0" stroke-linejoin="round" stroke-linecap="butt" d="m223.9895 -16.170603l63.055115 144.37796" fill-rule="evenodd"/><path fill="#000000" fill-opacity="0.0" d="m856.0184 298.43045l105.00787 0" fill-rule="evenodd"/><path stroke="#595856" stroke-width="16.0" stroke-linejoin="round" stroke-linecap="butt" d="m856.0184 298.43045l105.00787 0" fill-rule="evenodd"/><path fill="#000000" fill-opacity="0.0" d="m-4.9816275 298.1601l99.02362 0.661438" fill-rule="evenodd"/><path stroke="#595856" stroke-width="16.0" stroke-linejoin="round" stroke-linecap="butt" d="m-4.9816275 298.1601l99.02362 0.661438" fill-rule="evenodd"/><path fill="#000000" fill-opacity="0.0" d="m983.0184 605.73755l-117.00787 0" fill-rule="evenodd"/><path stroke="#595856" stroke-width="16.0" stroke-linejoin="round" stroke-linecap="butt" d="m983.0184 605.73755l-117.00787 0" fill-rule="evenodd"/><path fill="#000000" fill-opacity="0.0" d="m169.00787 604.6667l-169.00787 0" fill-rule="evenodd"/><path stroke="#595856" stroke-width="16.0" stroke-linejoin="round" stroke-linecap="butt" d="m169.00787 604.6667l-169.00787 0" fill-rule="evenodd"/><path fill="#000000" fill-opacity="0.0" d="m552.0184 276.61942l-168.0315 43.62204" fill-rule="evenodd"/><path stroke="#595856" stroke-width="16.0" stroke-linejoin="round" stroke-linecap="butt" d="m552.0184 276.61942l-168.0315 43.62204" fill-rule="evenodd"/><path fill="#000000" fill-opacity="0.0" d="m848.0184 604.6693l-278.01575 -328.00003" fill-rule="evenodd"/><path stroke="#595856" stroke-width="16.0" stroke-linejoin="round" stroke-linecap="butt" d="m848.0184 604.6693l-278.01575 -328.00003" fill-rule="evenodd"/><path fill="#000000" fill-opacity="0.0" d="m696.13385 103.32021l161.88977 188.88187" fill-rule="evenodd"/><path stroke="#595856" stroke-width="16.0" stroke-linejoin="round" stroke-linecap="butt" d="m696.13385 103.32021l161.88977 188.88187" fill-rule="evenodd"/><path fill="#000000" fill-opacity="0.0" d="m559.0184 278.18634l-37.984253 245.98425" fill-rule="evenodd"/><path stroke="#595856" stroke-width="16.0" stroke-linejoin="round" stroke-linecap="butt" d="m559.0184 278.18634l-37.984253 245.98425" fill-rule="evenodd"/><path fill="#000000" fill-opacity="0.0" d="m278.01837 130.18636l-169.03937 168.66142" fill-rule="evenodd"/><path stroke="#595856" stroke-width="16.0" stroke-linejoin="round" stroke-linecap="butt" d="m278.01837 130.18636l-169.03937 168.66142" fill-rule="evenodd"/><path fill="#000000" fill-opacity="0.0" d="m519.0184 531.18634l-330.89764 74.55121" fill-rule="evenodd"/><path stroke="#595856" stroke-width="16.0" stroke-linejoin="round" stroke-linecap="butt" d="m519.0184 531.18634l-330.89764 74.55121" fill-rule="evenodd"/><path fill="#000000" fill-opacity="0.0" d="m182.01837 617.0971l67.02362 141.10236" fill-rule="evenodd"/><path stroke="#595856" stroke-width="16.0" stroke-linejoin="round" stroke-linecap="butt" d="m182.01837 617.0971l67.02362 141.10236" fill-rule="evenodd"/><path fill="#a6a6a6" d="m236.7559 121.79265l0 0c0 -26.474876 21.462143 -47.937004 47.936996 -47.937004l0 0c12.713684 0 24.906677 5.0504913 33.896606 14.040421c8.989929 8.989937 14.040405 21.1829 14.040405 33.896584l0 0c0 26.474884 -21.462128 47.93701 -47.93701 47.93701l0 0c-26.474854 0 -47.936996 -21.462128 -47.936996 -47.93701z" fill-rule="evenodd"/><path fill="#8c8b88" d="m325.12598 326.5092l0 0c0 -26.474884 21.462128 -47.93701 47.93701 -47.93701l0 0c12.713684 0 24.906647 5.0505066 33.896576 14.040436c8.989929 8.989929 14.040436 21.182892 14.040436 33.896576l0 0c0 26.474884 -21.462128 47.93701 -47.93701 47.93701l0 0c-26.474884 0 -47.93701 -21.462128 -47.93701 -47.93701z" fill-rule="evenodd"/><path fill="#a6a6a6" d="m124.979004 604.6667l0 0c0 -26.474915 21.462128 -47.93701 47.93701 -47.93701l0 0c12.713684 0 24.906647 5.050476 33.896576 14.040405c8.989929 8.989929 14.040421 21.182922 14.040421 33.896606l0 0c0 26.474854 -21.462128 47.93701 -47.936996 47.93701l0 0c-26.474884 0 -47.93701 -21.462158 -47.93701 -47.93701z" fill-rule="evenodd"/><path fill="#595856" d="m802.3018 604.6667l0 0c0 -26.474915 21.462158 -47.93701 47.93701 -47.93701l0 0c12.713684 0 24.906677 5.050476 33.896606 14.040405c8.989929 8.989929 14.040405 21.182922 14.040405 33.896606l0 0c0 26.474854 -21.462097 47.93701 -47.93701 47.93701l0 0c-26.474854 0 -47.93701 -21.462158 -47.93701 -47.93701z" fill-rule="evenodd"/><path fill="#73726f" d="m817.3018 298.63516l0 0c0 -26.474884 21.462158 -47.936996 47.93701 -47.936996l0 0c12.713684 0 24.906677 5.0504913 33.896606 14.040421c8.989929 8.989929 14.040405 21.182892 14.040405 33.896576l0 0c0 26.474884 -21.462097 47.93701 -47.93701 47.93701l0 0c-26.474854 0 -47.93701 -21.462128 -47.93701 -47.93701z" fill-rule="evenodd"/><path fill="#595856" d="m644.3018 101.666664l0 0c0 -26.474876 21.462158 -47.937004 47.93701 -47.937004l0 0c12.713684 0 24.906677 5.0504913 33.896606 14.040421c8.989929 8.989937 14.040405 21.1829 14.040405 33.896584l0 0c0 26.474876 -21.462097 47.937004 -47.93701 47.937004l0 0c-26.474854 0 -47.93701 -21.462128 -47.93701 -47.937004z" fill-rule="evenodd"/><path fill="#8c8b88" d="m65.821526 298.63516l0 0c0 -26.474884 21.462128 -47.936996 47.937004 -47.936996l0 0c12.713684 0 24.906647 5.0504913 33.89659 14.040421c8.989929 8.989929 14.040421 21.182892 14.040421 33.896576l0 0c0 26.474884 -21.462128 47.93701 -47.93701 47.93701l0 0c-26.474876 0 -47.937004 -21.462128 -47.937004 -47.93701z" fill-rule="evenodd"/><path fill="#8c8b88" d="m472.12598 526.5092l0 0c0 -26.474915 21.462128 -47.937042 47.93701 -47.937042l0 0c12.713684 0 24.906677 5.0505066 33.896606 14.040436c8.989929 8.989929 14.040405 21.182861 14.040405 33.896606l0 0c0 26.474854 -21.462158 47.93695 -47.93701 47.93695l0 0c-26.474884 0 -47.93701 -21.462097 -47.93701 -47.93695z" fill-rule="evenodd"/><path fill="#73726f" d="m516.126 273.5092l0 0c0 -26.474884 21.462158 -47.93701 47.93701 -47.93701l0 0c12.713684 0 24.906677 5.0504913 33.896606 14.040436c8.989929 8.989929 14.040405 21.182892 14.040405 33.896576l0 0c0 26.474884 -21.462158 47.93701 -47.93701 47.93701l0 0c-26.474854 0 -47.93701 -21.462128 -47.93701 -47.93701z" fill-rule="evenodd"/></g></svg>