<svg version="1.1" viewBox="0.0 0.0 100.0 100.0" fill="none" stroke="none" stroke-linecap="square" stroke-miterlimit="10" xmlns:xlink="http://www.w3.org/1999/xlink" xmlns="http://www.w3.org/2000/svg"><clipPath id="p.0"><path d="m0 0l100.0 0l0 100.0l-100.0 0l0 -100.0z" clip-rule="nonzero"/></clipPath><g clip-path="url(#p.0)"><path fill="#000000" fill-opacity="0.0" d="m0 0l100.0 0l0 100.0l-100.0 0z" fill-rule="evenodd"/><path fill="#e67e22" d="m30.304462 60.52362l20.047245 -34.96063l20.047241 34.96063z" fill-rule="evenodd"/><path stroke="#e67e22" stroke-width="1.0" stroke-linejoin="round" stroke-linecap="butt" d="m30.304462 60.52362l20.047245 -34.96063l20.047241 34.96063z" fill-rule="evenodd"/><path fill="#e67e22" d="m29.60105 68.05908l0 0c0 -0.7045059 0.5711136 -1.2756195 1.2756157 -1.2756195l38.236176 0c0.33831024 0 0.6627655 0.13439941 0.9019928 0.37361908c0.2392273 0.2392273 0.37361908 0.56368256 0.37361908 0.9020004l0 5.10231c0 0.7045059 -0.5711136 1.2756119 -1.2756119 1.2756119l-38.236176 0l0 0c-0.7045021 0 -1.2756157 -0.57110596 -1.2756157 -1.2756119z" fill-rule="evenodd"/><path stroke="#e67e22" stroke-width="1.0" stroke-linejoin="round" stroke-linecap="butt" d="m29.60105 68.05908l0 0c0 -0.7045059 0.5711136 -1.2756195 1.2756157 -1.2756195l38.236176 0c0.33831024 0 0.6627655 0.13439941 0.9019928 0.37361908c0.2392273 0.2392273 0.37361908 0.56368256 0.37361908 0.9020004l0 5.10231c0 0.7045059 -0.5711136 1.2756119 -1.2756119 1.2756119l-38.236176 0l0 0c-0.7045021 0 -1.2756157 -0.57110596 -1.2756157 -1.2756119z" fill-rule="evenodd"/></g></svg>