<svg version="1.1" viewBox="0.0 0.0 100.0 100.0" fill="none" stroke="none" stroke-linecap="square" stroke-miterlimit="10" xmlns:xlink="http://www.w3.org/1999/xlink" xmlns="http://www.w3.org/2000/svg"><clipPath id="p.0"><path d="m0 0l100.0 0l0 100.0l-100.0 0l0 -100.0z" clip-rule="nonzero"/></clipPath><g clip-path="url(#p.0)"><path fill="#000000" fill-opacity="0.0" d="m0 0l100.0 0l0 100.0l-100.0 0z" fill-rule="evenodd"/><path fill="#e67e22" d="m24.535433 50.0l0 0c0 -14.06369 11.400877 -25.464567 25.464567 -25.464567l0 0c6.753624 0 13.230637 2.682867 18.006165 7.458399c4.7755356 4.775532 7.4584045 11.252544 7.4584045 18.006168l0 0c0 14.06369 -11.400879 25.46457 -25.46457 25.46457l0 0c-14.06369 0 -25.464567 -11.400879 -25.464567 -25.46457z" fill-rule="evenodd"/><path stroke="#e67e22" stroke-width="1.0" stroke-linejoin="round" stroke-linecap="butt" d="m24.535433 50.0l0 0c0 -14.06369 11.400877 -25.464567 25.464567 -25.464567l0 0c6.753624 0 13.230637 2.682867 18.006165 7.458399c4.7755356 4.775532 7.4584045 11.252544 7.4584045 18.006168l0 0c0 14.06369 -11.400879 25.46457 -25.46457 25.46457l0 0c-14.06369 0 -25.464567 -11.400879 -25.464567 -25.46457z" fill-rule="evenodd"/></g></svg>