<svg version="1.1" viewBox="0.0 0.0 100.0 100.0" fill="none" stroke="none" stroke-linecap="square" stroke-miterlimit="10" xmlns:xlink="http://www.w3.org/1999/xlink" xmlns="http://www.w3.org/2000/svg"><clipPath id="p.0"><path d="m0 0l100.0 0l0 100.0l-100.0 0l0 -100.0z" clip-rule="nonzero"/></clipPath><g clip-path="url(#p.0)"><path fill="#000000" fill-opacity="0.0" d="m0 0l100.0 0l0 100.0l-100.0 0z" fill-rule="evenodd"/><path fill="#000000" fill-opacity="0.0" d="m18.44032 41.6944l0 0c0 -12.842621 10.303925 -23.25362 23.014458 -23.25362l0 0c6.103817 0 11.957634 2.4499283 16.273682 6.8108273c4.3160477 4.360899 6.74078 10.275549 6.74078 16.442793l0 0c0 12.842617 -10.303925 23.25362 -23.014462 23.25362l0 0c-12.710533 0 -23.014458 -10.411003 -23.014458 -23.25362z" fill-rule="evenodd"/><path stroke="#e67e22" stroke-width="8.0" stroke-linejoin="round" stroke-linecap="butt" d="m18.44032 41.6944l0 0c0 -12.842621 10.303925 -23.25362 23.014458 -23.25362l0 0c6.103817 0 11.957634 2.4499283 16.273682 6.8108273c4.3160477 4.360899 6.74078 10.275549 6.74078 16.442793l0 0c0 12.842617 -10.303925 23.25362 -23.014462 23.25362l0 0c-12.710533 0 -23.014458 -10.411003 -23.014458 -23.25362z" fill-rule="evenodd"/><path fill="#e67e22" d="m59.346912 51.744072l19.77953 19.842522l-6.645668 6.645668l-19.77953 -19.842522z" fill-rule="evenodd"/><path stroke="#e67e22" stroke-width="1.0" stroke-linejoin="round" stroke-linecap="butt" d="m59.346912 51.744072l19.77953 19.842522l-6.645668 6.645668l-19.77953 -19.842522z" fill-rule="evenodd"/></g></svg>