<svg version="1.1" viewBox="0.0 0.0 100.0 100.0" fill="none" stroke="none" stroke-linecap="square" stroke-miterlimit="10" xmlns:xlink="http://www.w3.org/1999/xlink" xmlns="http://www.w3.org/2000/svg"><clipPath id="p.0"><path d="m0 0l100.0 0l0 100.0l-100.0 0l0 -100.0z" clip-rule="nonzero"/></clipPath><g clip-path="url(#p.0)"><path fill="#000000" fill-opacity="0.0" d="m0 0l100.0 0l0 100.0l-100.0 0z" fill-rule="evenodd"/><path fill="#000000" fill-opacity="0.0" d="m70.113686 28.16301l0 0c7.8285065 7.628956 10.970062 18.86715 8.232483 29.44978c-2.7375793 10.58263 -10.9347 18.887669 -21.480625 21.763416c-10.545921 2.8757477 -21.824242 -0.11856842 -29.554928 -7.8466263l21.539646 -21.546967z" fill-rule="evenodd"/><path fill="#000000" fill-opacity="0.0" d="m70.113686 28.16301l0 0c7.8285065 7.628956 10.970062 18.86715 8.232483 29.44978c-2.7375793 10.58263 -10.9347 18.887669 -21.480625 21.763416c-10.545921 2.8757477 -21.824242 -0.11856842 -29.554928 -7.8466263" fill-rule="evenodd"/><path stroke="#e67e22" stroke-width="12.0" stroke-linejoin="round" stroke-linecap="butt" d="m70.113686 28.16301l0 0c7.8285065 7.628956 10.970062 18.86715 8.232483 29.44978c-2.7375793 10.58263 -10.9347 18.887669 -21.480625 21.763416c-10.545921 2.8757477 -21.824242 -0.11856842 -29.554928 -7.8466263" fill-rule="evenodd"/><path fill="#e67e22" d="m41.249344 50.0l0 0c0 -4.1747513 3.384304 -7.5590553 7.5590553 -7.5590553l0 0c2.0047874 0 3.9274597 0.79639816 5.3450584 2.213997c1.4175987 1.4175987 2.213997 3.340271 2.213997 5.3450584l0 0c0 4.1747513 -3.384304 7.5590553 -7.5590553 7.5590553l0 0c-4.1747513 0 -7.5590553 -3.384304 -7.5590553 -7.5590553z" fill-rule="evenodd"/><path stroke="#e67e22" stroke-width="1.0" stroke-linejoin="round" stroke-linecap="butt" d="m41.249344 50.0l0 0c0 -4.1747513 3.384304 -7.5590553 7.5590553 -7.5590553l0 0c2.0047874 0 3.9274597 0.79639816 5.3450584 2.213997c1.4175987 1.4175987 2.213997 3.340271 2.213997 5.3450584l0 0c0 4.1747513 -3.384304 7.5590553 -7.5590553 7.5590553l0 0c-4.1747513 0 -7.5590553 -3.384304 -7.5590553 -7.5590553z" fill-rule="evenodd"/><path fill="#000000" fill-opacity="0.0" d="m49.20015 66.39453l0 0c-5.928318 0.14341736 -11.471943 -2.925888 -14.496891 -8.026398c-3.02495 -5.1005135 -3.0596008 -11.437008 -0.09061813 -16.570297c2.9689827 -5.1332893 8.478706 -8.263039 14.408241 -8.184471l-0.21720123 16.392262z" fill-rule="evenodd"/><path fill="#000000" fill-opacity="0.0" d="m49.20015 66.39453l0 0c-5.928318 0.14341736 -11.471943 -2.925888 -14.496891 -8.026398c-3.02495 -5.1005135 -3.0596008 -11.437008 -0.09061813 -16.570297c2.9689827 -5.1332893 8.478706 -8.263039 14.408241 -8.184471" fill-rule="evenodd"/><path stroke="#e67e22" stroke-width="12.0" stroke-linejoin="round" stroke-linecap="butt" d="m49.20015 66.39453l0 0c-5.928318 0.14341736 -11.471943 -2.925888 -14.496891 -8.026398c-3.02495 -5.1005135 -3.0596008 -11.437008 -0.09061813 -16.570297c2.9689827 -5.1332893 8.478706 -8.263039 14.408241 -8.184471" fill-rule="evenodd"/></g></svg>