<svg version="1.1" viewBox="0.0 0.0 100.0 100.0" fill="none" stroke="none" stroke-linecap="square"
    stroke-miterlimit="10" xmlns:xlink="http://www.w3.org/1999/xlink" xmlns="http://www.w3.org/2000/svg">
    <clipPath id="p.0">
        <path d="m0 0l100.0 0l0 100.0l-100.0 0l0 -100.0z" clip-rule="nonzero" />
    </clipPath>
    <g clip-path="url(#p.0)">
        <path fill="#000000" fill-opacity="0.0" d="m0 0l100.0 0l0 100.0l-100.0 0z" fill-rule="evenodd" />
        <path fill="#000000" fill-opacity="0.0"
            d="m18.368237 50.379044l0 0c-0.14112663 -10.932087 5.5851097 -21.101976 15.005653 -26.650288c9.4205475 -5.5483093 21.091476 -5.62463 30.583778 -0.19999886c9.492298 5.424631 15.351055 15.518763 15.352909 26.451761l-30.472439 0.005176544z"
            fill-rule="evenodd" />
        <path fill="#000000" fill-opacity="0.0"
            d="m18.368237 50.379044l0 0c-0.14112663 -10.932087 5.5851097 -21.101976 15.005653 -26.650288c9.4205475 -5.5483093 21.091476 -5.62463 30.583778 -0.19999886c9.492298 5.424631 15.351055 15.518763 15.352909 26.451761"
            fill-rule="evenodd" />
        <path stroke="#e67e22" stroke-width="12.0" stroke-linejoin="round" stroke-linecap="butt"
            d="m18.368237 50.379044l0 0c-0.14112663 -10.932087 5.5851097 -21.101976 15.005653 -26.650288c9.4205475 -5.5483093 21.091476 -5.62463 30.583778 -0.19999886c9.492298 5.424631 15.351055 15.518763 15.352909 26.451761"
            fill-rule="evenodd" />
        <path fill="#e67e22"
            d="m41.249344 50.0l0 0c0 -4.1747513 3.384304 -7.5590553 7.5590553 -7.5590553l0 0c2.0047874 0 3.9274597 0.79639816 5.3450584 2.213997c1.4175987 1.4175987 2.213997 3.340271 2.213997 5.3450584l0 0c0 4.1747513 -3.384304 7.5590553 -7.5590553 7.5590553l0 0c-4.1747513 0 -7.5590553 -3.384304 -7.5590553 -7.5590553z"
            fill-rule="evenodd" />
        <path stroke="#e67e22" stroke-width="1.0" stroke-linejoin="round" stroke-linecap="butt"
            d="m41.249344 50.0l0 0c0 -4.1747513 3.384304 -7.5590553 7.5590553 -7.5590553l0 0c2.0047874 0 3.9274597 0.79639816 5.3450584 2.213997c1.4175987 1.4175987 2.213997 3.340271 2.213997 5.3450584l0 0c0 4.1747513 -3.384304 7.5590553 -7.5590553 7.5590553l0 0c-4.1747513 0 -7.5590553 -3.384304 -7.5590553 -7.5590553z"
            fill-rule="evenodd" />
        <path fill="#000000" fill-opacity="0.0"
            d="m32.419495 50.39647l0 0c-0.14341354 -5.928322 2.925888 -11.471943 8.026398 -14.496891c5.1005135 -3.0249481 11.437008 -3.0596008 16.570297 -0.09061813c5.1332893 2.9689827 8.263039 8.478706 8.184471 14.408241l-16.392262 -0.21720123z"
            fill-rule="evenodd" />
        <path fill="#000000" fill-opacity="0.0"
            d="m32.419495 50.39647l0 0c-0.14341354 -5.928322 2.925888 -11.471943 8.026398 -14.496891c5.1005135 -3.0249481 11.437008 -3.0596008 16.570297 -0.09061813c5.1332893 2.9689827 8.263039 8.478706 8.184471 14.408241"
            fill-rule="evenodd" />
        <path stroke="#e67e22" stroke-width="12.0" stroke-linejoin="round" stroke-linecap="butt"
            d="m32.419495 50.39647l0 0c-0.14341354 -5.928322 2.925888 -11.471943 8.026398 -14.496891c5.1005135 -3.0249481 11.437008 -3.0596008 16.570297 -0.09061813c5.1332893 2.9689827 8.263039 8.478706 8.184471 14.408241"
            fill-rule="evenodd" />
    </g>
</svg>