<svg version="1.1" viewBox="0.0 0.0 100.0 100.0" fill="none" stroke="none" stroke-linecap="square" stroke-miterlimit="10" xmlns:xlink="http://www.w3.org/1999/xlink" xmlns="http://www.w3.org/2000/svg"><clipPath id="p.0"><path d="m0 0l100.0 0l0 100.0l-100.0 0l0 -100.0z" clip-rule="nonzero"/></clipPath><g clip-path="url(#p.0)"><path fill="#000000" fill-opacity="0.0" d="m0 0l100.0 0l0 100.0l-100.0 0z" fill-rule="evenodd"/><path fill="#000000" fill-opacity="0.0" d="m27.028421 28.726273l0 0c7.6289577 -7.8285027 18.867151 -10.970064 29.449781 -8.232483c10.582634 2.7375793 18.887665 10.9347 21.763412 21.480625c2.8757477 10.545921 -0.11856079 21.824242 -7.8466263 29.554928l-21.546967 -21.539646z" fill-rule="evenodd"/><path fill="#000000" fill-opacity="0.0" d="m27.028421 28.726273l0 0c7.6289577 -7.8285027 18.867151 -10.970064 29.449781 -8.232483c10.582634 2.7375793 18.887665 10.9347 21.763412 21.480625c2.8757477 10.545921 -0.11856079 21.824242 -7.8466263 29.554928" fill-rule="evenodd"/><path stroke="#e67e22" stroke-width="12.0" stroke-linejoin="round" stroke-linecap="butt" d="m27.028421 28.726273l0 0c7.6289577 -7.8285027 18.867151 -10.970064 29.449781 -8.232483c10.582634 2.7375793 18.887665 10.9347 21.763412 21.480625c2.8757477 10.545921 -0.11856079 21.824242 -7.8466263 29.554928" fill-rule="evenodd"/><path fill="#e67e22" d="m41.249344 50.0l0 0c0 -4.1747513 3.384304 -7.5590553 7.5590553 -7.5590553l0 0c2.0047874 0 3.9274597 0.79639816 5.3450584 2.213997c1.4175987 1.4175987 2.213997 3.340271 2.213997 5.3450584l0 0c0 4.1747513 -3.384304 7.5590553 -7.5590553 7.5590553l0 0c-4.1747513 0 -7.5590553 -3.384304 -7.5590553 -7.5590553z" fill-rule="evenodd"/><path stroke="#e67e22" stroke-width="1.0" stroke-linejoin="round" stroke-linecap="butt" d="m41.249344 50.0l0 0c0 -4.1747513 3.384304 -7.5590553 7.5590553 -7.5590553l0 0c2.0047874 0 3.9274597 0.79639816 5.3450584 2.213997c1.4175987 1.4175987 2.213997 3.340271 2.213997 5.3450584l0 0c0 4.1747513 -3.384304 7.5590553 -7.5590553 7.5590553l0 0c-4.1747513 0 -7.5590553 -3.384304 -7.5590553 -7.5590553z" fill-rule="evenodd"/><path fill="#000000" fill-opacity="0.0" d="m48.414013 33.624214l0 0c5.928318 -0.14341354 11.471943 2.9258919 14.496891 8.0264015c3.0249481 5.1005096 3.0596008 11.437008 0.09061813 16.570297c-2.9689865 5.1332893 -8.47871 8.263035 -14.408241 8.184467l0.21720123 -16.392258z" fill-rule="evenodd"/><path fill="#000000" fill-opacity="0.0" d="m48.414013 33.624214l0 0c5.928318 -0.14341354 11.471943 2.9258919 14.496891 8.0264015c3.0249481 5.1005096 3.0596008 11.437008 0.09061813 16.570297c-2.9689865 5.1332893 -8.47871 8.263035 -14.408241 8.184467" fill-rule="evenodd"/><path stroke="#e67e22" stroke-width="12.0" stroke-linejoin="round" stroke-linecap="butt" d="m48.414013 33.624214l0 0c5.928318 -0.14341354 11.471943 2.9258919 14.496891 8.0264015c3.0249481 5.1005096 3.0596008 11.437008 0.09061813 16.570297c-2.9689865 5.1332893 -8.47871 8.263035 -14.408241 8.184467" fill-rule="evenodd"/></g></svg>