<svg version="1.1" viewBox="0.0 0.0 100.0 100.0" fill="none" stroke="none" stroke-linecap="square" stroke-miterlimit="10" xmlns:xlink="http://www.w3.org/1999/xlink" xmlns="http://www.w3.org/2000/svg"><clipPath id="p.0"><path d="m0 0l100.0 0l0 100.0l-100.0 0l0 -100.0z" clip-rule="nonzero"/></clipPath><g clip-path="url(#p.0)"><path fill="#000000" fill-opacity="0.0" d="m0 0l100.0 0l0 100.0l-100.0 0z" fill-rule="evenodd"/><path fill="#000000" fill-opacity="0.0" d="m49.24129 80.454834l0 0c-10.932083 0.14112854 -21.101976 -5.5851135 -26.650286 -15.005653c-5.548311 -9.420544 -5.624632 -21.091476 -0.20000076 -30.583778c5.424631 -9.492302 15.518763 -15.351053 26.451761 -15.352911l0.005176544 30.47244z" fill-rule="evenodd"/><path fill="#000000" fill-opacity="0.0" d="m49.24129 80.454834l0 0c-10.932083 0.14112854 -21.101976 -5.5851135 -26.650286 -15.005653c-5.548311 -9.420544 -5.624632 -21.091476 -0.20000076 -30.583778c5.424631 -9.492302 15.518763 -15.351053 26.451761 -15.352911" fill-rule="evenodd"/><path stroke="#e67e22" stroke-width="12.0" stroke-linejoin="round" stroke-linecap="butt" d="m49.24129 80.454834l0 0c-10.932083 0.14112854 -21.101976 -5.5851135 -26.650286 -15.005653c-5.548311 -9.420544 -5.624632 -21.091476 -0.20000076 -30.583778c5.424631 -9.492302 15.518763 -15.351053 26.451761 -15.352911" fill-rule="evenodd"/><path fill="#e67e22" d="m41.249344 50.0l0 0c0 -4.1747513 3.384304 -7.5590553 7.5590553 -7.5590553l0 0c2.0047874 0 3.9274597 0.79639816 5.3450584 2.213997c1.4175987 1.4175987 2.213997 3.340271 2.213997 5.3450584l0 0c0 4.1747513 -3.384304 7.5590553 -7.5590553 7.5590553l0 0c-4.1747513 0 -7.5590553 -3.384304 -7.5590553 -7.5590553z" fill-rule="evenodd"/><path stroke="#e67e22" stroke-width="1.0" stroke-linejoin="round" stroke-linecap="butt" d="m41.249344 50.0l0 0c0 -4.1747513 3.384304 -7.5590553 7.5590553 -7.5590553l0 0c2.0047874 0 3.9274597 0.79639816 5.3450584 2.213997c1.4175987 1.4175987 2.213997 3.340271 2.213997 5.3450584l0 0c0 4.1747513 -3.384304 7.5590553 -7.5590553 7.5590553l0 0c-4.1747513 0 -7.5590553 -3.384304 -7.5590553 -7.5590553z" fill-rule="evenodd"/><path fill="#000000" fill-opacity="0.0" d="m65.1973 49.60353l0 0c0.14341736 5.928322 -2.925888 11.471943 -8.026398 14.496895c-5.1005135 3.0249481 -11.437008 3.0596008 -16.570297 0.09061432c-5.1332893 -2.9689827 -8.263039 -8.478706 -8.184471 -14.408241l16.392262 0.21720123z" fill-rule="evenodd"/><path fill="#000000" fill-opacity="0.0" d="m65.1973 49.60353l0 0c0.14341736 5.928322 -2.925888 11.471943 -8.026398 14.496895c-5.1005135 3.0249481 -11.437008 3.0596008 -16.570297 0.09061432c-5.1332893 -2.9689827 -8.263039 -8.478706 -8.184471 -14.408241" fill-rule="evenodd"/><path stroke="#e67e22" stroke-width="12.0" stroke-linejoin="round" stroke-linecap="butt" d="m65.1973 49.60353l0 0c0.14341736 5.928322 -2.925888 11.471943 -8.026398 14.496895c-5.1005135 3.0249481 -11.437008 3.0596008 -16.570297 0.09061432c-5.1332893 -2.9689827 -8.263039 -8.478706 -8.184471 -14.408241" fill-rule="evenodd"/></g></svg>