<svg version="1.1" viewBox="0.0 0.0 100.0 100.0" fill="none" stroke="none" stroke-linecap="square" stroke-miterlimit="10" xmlns:xlink="http://www.w3.org/1999/xlink" xmlns="http://www.w3.org/2000/svg"><clipPath id="p.0"><path d="m0 0l100.0 0l0 100.0l-100.0 0l0 -100.0z" clip-rule="nonzero"/></clipPath><g clip-path="url(#p.0)"><path fill="#000000" fill-opacity="0.0" d="m0 0l100.0 0l0 100.0l-100.0 0z" fill-rule="evenodd"/><path fill="#000000" fill-opacity="0.0" d="m70.67547 71.24835l0 0c-7.628956 7.8285065 -18.86715 10.97007 -29.449783 8.232483c-10.58263 -2.7375793 -18.887665 -10.934692 -21.763412 -21.480621c-2.8757477 -10.545925 0.11856651 -21.824242 7.8466263 -29.554928l21.546967 21.539646z" fill-rule="evenodd"/><path fill="#000000" fill-opacity="0.0" d="m70.67547 71.24835l0 0c-7.628956 7.8285065 -18.86715 10.97007 -29.449783 8.232483c-10.58263 -2.7375793 -18.887665 -10.934692 -21.763412 -21.480621c-2.8757477 -10.545925 0.11856651 -21.824242 7.8466263 -29.554928" fill-rule="evenodd"/><path stroke="#e67e22" stroke-width="12.0" stroke-linejoin="round" stroke-linecap="butt" d="m70.67547 71.24835l0 0c-7.628956 7.8285065 -18.86715 10.97007 -29.449783 8.232483c-10.58263 -2.7375793 -18.887665 -10.934692 -21.763412 -21.480621c-2.8757477 -10.545925 0.11856651 -21.824242 7.8466263 -29.554928" fill-rule="evenodd"/><path fill="#e67e22" d="m41.249344 50.0l0 0c0 -4.1747513 3.384304 -7.5590553 7.5590553 -7.5590553l0 0c2.0047874 0 3.9274597 0.79639816 5.3450584 2.213997c1.4175987 1.4175987 2.213997 3.340271 2.213997 5.3450584l0 0c0 4.1747513 -3.384304 7.5590553 -7.5590553 7.5590553l0 0c-4.1747513 0 -7.5590553 -3.384304 -7.5590553 -7.5590553z" fill-rule="evenodd"/><path stroke="#e67e22" stroke-width="1.0" stroke-linejoin="round" stroke-linecap="butt" d="m41.249344 50.0l0 0c0 -4.1747513 3.384304 -7.5590553 7.5590553 -7.5590553l0 0c2.0047874 0 3.9274597 0.79639816 5.3450584 2.213997c1.4175987 1.4175987 2.213997 3.340271 2.213997 5.3450584l0 0c0 4.1747513 -3.384304 7.5590553 -7.5590553 7.5590553l0 0c-4.1747513 0 -7.5590553 -3.384304 -7.5590553 -7.5590553z" fill-rule="evenodd"/><path fill="#000000" fill-opacity="0.0" d="m48.407215 33.616722l0 0c5.928318 -0.14341354 11.471939 2.925888 14.496887 8.026398c3.024952 5.1005135 3.0596046 11.437008 0.09061813 16.570297c-2.9689827 5.1332893 -8.478706 8.263039 -14.408241 8.184471l0.21720123 -16.392262z" fill-rule="evenodd"/><path fill="#000000" fill-opacity="0.0" d="m48.407215 33.616722l0 0c5.928318 -0.14341354 11.471939 2.925888 14.496887 8.026398c3.024952 5.1005135 3.0596046 11.437008 0.09061813 16.570297c-2.9689827 5.1332893 -8.478706 8.263039 -14.408241 8.184471" fill-rule="evenodd"/><path stroke="#e67e22" stroke-width="12.0" stroke-linejoin="round" stroke-linecap="butt" d="m48.407215 33.616722l0 0c5.928318 -0.14341354 11.471939 2.925888 14.496887 8.026398c3.024952 5.1005135 3.0596046 11.437008 0.09061813 16.570297c-2.9689827 5.1332893 -8.478706 8.263039 -14.408241 8.184471" fill-rule="evenodd"/></g></svg>