<svg version="1.1" viewBox="0.0 0.0 100.0 100.0" fill="none" stroke="none" stroke-linecap="square" stroke-miterlimit="10" xmlns:xlink="http://www.w3.org/1999/xlink" xmlns="http://www.w3.org/2000/svg"><clipPath id="p.0"><path d="m0 0l100.0 0l0 100.0l-100.0 0l0 -100.0z" clip-rule="nonzero"/></clipPath><g clip-path="url(#p.0)"><path fill="#000000" fill-opacity="0.0" d="m0 0l100.0 0l0 100.0l-100.0 0z" fill-rule="evenodd"/><path fill="#e67e22" d="m47.811024 49.527554l0 -31.086615l-29.35433 31.086615z" fill-rule="evenodd"/><path fill="#e67e22" d="m47.805775 49.38845l-29.354332 0l29.354332 32.18898z" fill-rule="evenodd"/><path fill="#e67e22" d="m57.97638 49.59974l0 0c0 -3.7050934 3.0035667 -6.708664 6.7086563 -6.708664l0 0c1.7792511 0 3.4856262 0.7068062 4.743744 1.9649239c1.2581177 1.2581177 1.96492 2.9644928 1.96492 4.74374l0 0c0 3.7050896 -3.0035706 6.70866 -6.708664 6.70866l0 0c-3.7050896 0 -6.7086563 -3.0035706 -6.7086563 -6.70866z" fill-rule="evenodd"/></g></svg>